<svg aria-hidden="true" style="width:0;height:0;position:absolute;overflow:hidden" xmlns="http://www.w3.org/2000/svg"><defs><symbol id="icon-burger" viewBox="0 0 57 32"><path fill="#474747" style="fill:var(--color1,#474747)" d="M57.263 2.526a2.527 2.527 0 0 1-2.526 2.526H2.526a2.527 2.527 0 0 1 0-5.052h52.211a2.527 2.527 0 0 1 2.526 2.526zm0 13.474a2.527 2.527 0 0 1-2.526 2.526H2.526a2.527 2.527 0 0 1 0-5.052h52.211A2.527 2.527 0 0 1 57.263 16zm-2.526 16a2.527 2.527 0 0 0 0-5.052H2.526a2.527 2.527 0 0 0 0 5.052h52.211z"/></symbol></defs></svg>