<svg aria-hidden="true" style="position: absolute; width: 0; height: 0; overflow: hidden;" version="1.1" xmlns="http://www.w3.org/2000/svg" xmlns:xlink="http://www.w3.org/1999/xlink">
<defs>
<symbol id="icon-burger" viewBox="0 0 57 32">
<path fill="#474747" style="fill: var(--color1, #474747)" d="M57.263 2.526c0 1.395-1.132 2.526-2.526 2.526h-52.211c-1.395 0-2.526-1.132-2.526-2.526s1.132-2.526 2.526-2.526h52.211c1.395 0 2.526 1.132 2.526 2.526zM57.263 16c0 1.395-1.132 2.526-2.526 2.526h-52.211c-1.395 0-2.526-1.132-2.526-2.526s1.132-2.526 2.526-2.526h52.211c1.395 0 2.526 1.132 2.526 2.526zM54.737 32c1.395 0 2.526-1.132 2.526-2.526s-1.132-2.526-2.526-2.526h-52.211c-1.395 0-2.526 1.132-2.526 2.526s1.132 2.526 2.526 2.526h52.211z"></path>
</symbol>
</defs>
</svg>
